<svg width="681" height="133" viewBox="0 0 681 133" fill="none" xmlns="http://www.w3.org/2000/svg">
<path fill-rule="evenodd" clip-rule="evenodd" d="M124.369 62.1843C124.369 96.5278 96.5278 124.369 62.1843 124.369C27.8409 124.369 0 96.5278 0 62.1843C0 27.8409 27.8409 0 62.1843 0C96.5278 0 124.369 27.8409 124.369 62.1843ZM61.9263 74.8276C69.0543 74.8276 74.8277 69.0543 74.8277 61.9263C74.8277 54.7983 69.0543 49.025 61.9263 49.025C54.7984 49.025 49.025 54.7983 49.025 61.9263C49.025 69.0543 54.7984 74.8276 61.9263 74.8276ZM87.2129 67.0868C84.8262 78.8593 74.4084 87.7289 61.9263 87.7289C49.4443 87.7289 39.0265 78.8593 36.6397 67.0868H15.4816C12.6272 67.0868 10.3211 64.7807 10.3211 61.9263C10.3211 59.0719 12.6272 56.7658 15.4816 56.7658H36.6397C39.0265 44.9933 49.4443 36.1237 61.9263 36.1237C74.4084 36.1237 84.8262 44.9933 87.2129 56.7658H108.371C111.225 56.7658 113.532 59.0719 113.532 61.9263C113.532 64.7807 111.225 67.0868 108.371 67.0868H87.2129ZM624.916 104.017H640.112V78.402L660.517 104.017H680.272L653.571 74.0604L680.055 43.8863H660.3L640.112 69.3932V23.6979H624.916V104.017ZM172.361 99.7844C178.295 103.113 184.807 104.777 191.899 104.777C198.99 104.777 205.502 103.113 211.436 99.7844C217.369 96.4558 222.037 91.861 225.437 85.9998C228.911 80.0663 230.647 73.373 230.647 65.9199C230.647 58.5392 228.911 51.9183 225.437 46.0571C222.037 40.1236 217.369 35.4925 211.436 32.164C205.575 28.8354 199.062 27.1712 191.899 27.1712C184.807 27.1712 178.295 28.8354 172.361 32.164C166.428 35.4925 161.725 40.1236 158.251 46.0571C154.778 51.9183 153.041 58.5392 153.041 65.9199C153.041 73.373 154.778 80.0663 158.251 85.9998C161.725 91.861 166.428 96.4558 172.361 99.7844ZM203.947 88.1706C200.473 90.1967 196.457 91.2097 191.899 91.2097C187.34 91.2097 183.288 90.1967 179.742 88.1706C176.269 86.0722 173.555 83.1054 171.602 79.2703C169.648 75.4353 168.671 70.9851 168.671 65.9199C168.671 60.8547 169.648 56.4408 171.602 52.678C173.555 48.843 176.269 45.9124 179.742 43.8863C183.288 41.8602 187.34 40.8472 191.899 40.8472C196.457 40.8472 200.473 41.8602 203.947 43.8863C207.42 45.9124 210.133 48.843 212.087 52.678C214.041 56.4408 215.018 60.8547 215.018 65.9199C215.018 70.9851 214.041 75.4353 212.087 79.2703C210.133 83.1054 207.42 86.0722 203.947 88.1706ZM265.18 45.7315C261.779 47.5405 259.102 49.8198 257.148 52.5695V43.8863H241.952V132.672H257.148V95.4428C259.247 98.1925 261.96 100.472 265.289 102.281C268.69 104.09 272.597 104.994 277.011 104.994C282.148 104.994 286.78 103.692 290.904 101.087C295.101 98.4819 298.393 94.8277 300.781 90.1243C303.241 85.3486 304.472 79.8854 304.472 73.7348C304.472 67.5842 303.241 62.1934 300.781 57.5623C298.393 52.8589 295.101 49.2409 290.904 46.7084C286.78 44.1758 282.148 42.9095 277.011 42.9095C272.597 42.9095 268.653 43.8501 265.18 45.7315ZM286.671 64.4004C288.191 67.0053 288.95 70.1168 288.95 73.7348C288.95 77.4252 288.191 80.609 286.671 83.2863C285.224 85.9636 283.27 88.0259 280.81 89.4731C278.422 90.9203 275.817 91.6439 272.995 91.6439C270.245 91.6439 267.64 90.9565 265.18 89.5816C262.792 88.1344 260.838 86.0722 259.319 83.3949C257.872 80.7175 257.148 77.5699 257.148 73.9519C257.148 70.3339 257.872 67.1862 259.319 64.5089C260.838 61.8316 262.792 59.8055 265.18 58.4307C267.64 56.9835 270.245 56.2599 272.995 56.2599C275.817 56.2599 278.422 56.9473 280.81 58.3221C283.27 59.697 285.224 61.723 286.671 64.4004ZM371.412 72.6494C371.412 74.8202 371.267 76.7739 370.978 78.5106H327.019C327.381 82.8522 328.9 86.2531 331.578 88.7133C334.255 91.1736 337.547 92.4037 341.455 92.4037C347.099 92.4037 351.115 89.9796 353.503 85.1315H369.892C368.156 90.9203 364.827 95.6961 359.907 99.4588C354.986 103.149 348.944 104.994 341.78 104.994C335.992 104.994 330.782 103.728 326.151 101.195C321.592 98.5904 318.01 94.9363 315.405 90.2329C312.873 85.5295 311.606 80.1025 311.606 73.9519C311.606 67.7289 312.873 62.2657 315.405 57.5623C317.938 52.8589 321.483 49.2409 326.042 46.7084C330.601 44.1758 335.847 42.9095 341.78 42.9095C347.497 42.9095 352.598 44.1396 357.085 46.5998C361.643 49.06 365.153 52.5695 367.613 57.1282C370.146 61.6145 371.412 66.7882 371.412 72.6494ZM355.674 68.3078C355.601 64.4004 354.19 61.2889 351.44 58.9734C348.691 56.5855 345.326 55.3915 341.346 55.3915C337.584 55.3915 334.4 56.5493 331.795 58.8648C329.262 61.108 327.706 64.2556 327.128 68.3078H355.674ZM433.191 49.856C428.777 45.2973 422.989 43.018 415.825 43.018C412.062 43.018 408.589 43.7778 405.405 45.2973C402.294 46.7445 399.725 48.7706 397.699 51.3756V43.8863H382.503V104.017H397.699V70.8042C397.699 66.0285 398.893 62.3743 401.281 59.8417C403.741 57.2367 407.069 55.9342 411.266 55.9342C415.391 55.9342 418.647 57.2367 421.035 59.8417C423.423 62.3743 424.617 66.0285 424.617 70.8042V104.017H439.812V68.742C439.812 60.6376 437.605 54.3423 433.191 49.856ZM501.043 28.2566V40.5216H469.458V59.9502H493.663V71.9982H469.458V104.017H454.263V28.2566H501.043ZM522.89 101.195C527.521 103.728 532.73 104.994 538.519 104.994C544.38 104.994 549.663 103.728 554.366 101.195C559.142 98.5904 562.905 94.9363 565.654 90.2329C568.476 85.5295 569.887 80.1025 569.887 73.9519C569.887 67.8013 568.513 62.3743 565.763 57.6709C563.086 52.9675 559.395 49.3495 554.692 46.8169C549.988 44.2119 544.742 42.9095 538.953 42.9095C533.165 42.9095 527.919 44.2119 523.215 46.8169C518.512 49.3495 514.785 52.9675 512.036 57.6709C509.358 62.3743 508.02 67.8013 508.02 73.9519C508.02 80.1025 509.322 85.5295 511.927 90.2329C514.604 94.9363 518.258 98.5904 522.89 101.195ZM546.226 89.7987C543.838 91.1012 541.269 91.7524 538.519 91.7524C534.178 91.7524 530.56 90.2329 527.665 87.1938C524.843 84.0823 523.432 79.6683 523.432 73.9519C523.432 68.2354 524.879 63.8577 527.774 60.8185C530.741 57.7071 534.395 56.1513 538.736 56.1513C543.078 56.1513 546.732 57.7071 549.699 60.8185C552.738 63.8577 554.258 68.2354 554.258 73.9519C554.258 77.787 553.534 81.0432 552.087 83.7205C550.64 86.3978 548.686 88.4239 546.226 89.7987ZM596.229 53.2207C598.183 50.0369 600.716 47.5405 603.827 45.7315C607.011 43.9225 610.629 43.018 614.681 43.018V58.9734H610.665C605.89 58.9734 602.272 60.0949 599.811 62.3381C597.423 64.5813 596.229 68.4887 596.229 74.0604V104.017H581.034V43.8863H596.229V53.2207Z" fill="white"/>
</svg>
